<?xml version="1.0" standalone="no"?>
<!DOCTYPE svg PUBLIC "-//W3C//DTD SVG 20010904//EN"
 "http://www.w3.org/TR/2001/REC-SVG-20010904/DTD/svg10.dtd">
<svg version="1.0" xmlns="http://www.w3.org/2000/svg"
 width="200.000000pt" height="60.000000pt" viewBox="0 0 300.000000 300.000000"
 preserveAspectRatio="xMidYMid meet">

<g transform="translate(0.000000,300.000000) scale(0.100000,-0.100000)"
fill="gray" stroke="none">
<path d="M1262 2443 c-7 -3 -42 -44 -78 -91 -74 -98 -78 -100 -220 -101 -106
-1 -111 -7 -132 -147 -18 -119 -9 -107 -136 -182 -44 -26 -84 -55 -90 -64 -8
-13 -2 -45 27 -132 l38 -114 -61 -94 c-33 -52 -60 -104 -60 -116 0 -15 29 -50
86 -104 l85 -83 -5 -45 c-18 -155 -18 -184 2 -205 11 -12 60 -32 120 -49 56
-16 106 -33 111 -40 5 -6 26 -51 46 -101 21 -49 42 -96 47 -103 14 -17 67 -15
172 7 l90 19 90 -74 c49 -41 98 -74 108 -74 10 0 55 30 100 66 46 37 88 70 93
75 6 4 51 -1 100 -12 49 -10 105 -19 125 -19 42 0 48 8 101 135 l38 90 104 30
c57 17 112 37 122 45 16 13 17 27 11 135 l-7 120 86 85 c47 46 85 92 85 102 0
10 -28 61 -62 114 l-61 96 35 111 c24 73 33 118 28 131 -4 12 -50 46 -106 78
-93 54 -99 60 -105 95 -4 21 -12 71 -19 112 -16 98 -30 111 -119 111 -37 0
-90 3 -116 7 -46 6 -50 9 -112 95 -42 56 -74 90 -89 94 -18 5 -54 -8 -127 -43
l-102 -49 -100 47 c-98 47 -117 53 -143 42z m147 -78 l93 -45 98 46 c72 34
106 45 124 40 16 -4 48 -36 86 -86 33 -43 64 -82 70 -85 5 -3 55 -9 112 -12
130 -8 139 -16 157 -128 7 -44 15 -90 18 -102 3 -16 34 -39 95 -75 53 -30 95
-62 101 -76 9 -19 5 -42 -21 -121 -18 -53 -32 -102 -32 -108 0 -5 25 -48 55
-94 30 -46 55 -95 55 -108 0 -16 -25 -49 -81 -106 l-81 -83 10 -98 c6 -55 6
-108 1 -121 -10 -28 -43 -44 -146 -73 l-82 -22 -36 -87 c-21 -47 -46 -96 -58
-108 -25 -27 -45 -28 -160 -4 l-88 19 -87 -69 c-48 -38 -97 -69 -109 -69 -12
0 -60 30 -107 68 l-86 69 -104 -21 c-139 -26 -141 -25 -196 102 l-42 100 -82
23 c-98 27 -132 43 -146 69 -7 13 -7 53 -2 122 l9 103 -78 75 c-99 94 -99 102
-23 223 l56 88 -31 89 c-49 141 -45 154 83 225 l83 47 17 101 c21 125 37 147
106 147 26 0 75 3 109 6 l61 7 51 68 c56 75 92 109 119 109 9 0 58 -20 109
-45z"/>
<path d="M1278 2368 c-8 -7 -41 -47 -72 -89 -63 -86 -70 -89 -202 -89 -41 0
-77 -5 -86 -12 -9 -7 -19 -33 -22 -58 -4 -25 -11 -73 -17 -107 l-11 -63 -88
-50 c-48 -28 -93 -57 -100 -65 -10 -12 -5 -36 24 -121 28 -86 33 -111 24 -128
-9 -17 -8 -19 3 -8 23 21 93 15 117 -11 52 -55 13 -137 -64 -137 -49 0 -81 29
-86 78 l-3 34 -32 -54 c-54 -89 -55 -82 36 -169 l83 -78 -7 -114 c-6 -91 -4
-116 6 -123 8 -5 58 -23 113 -39 l99 -31 42 -98 c24 -54 49 -102 57 -107 7 -4
62 2 121 13 l107 20 87 -71 c48 -39 91 -71 94 -71 4 0 47 31 96 70 48 38 93
70 99 70 7 0 55 -9 108 -20 53 -11 102 -17 110 -14 8 3 34 51 57 107 l44 101
102 31 c57 17 108 36 114 42 8 8 9 43 3 122 l-9 111 77 77 c44 44 78 86 78 97
0 11 -14 41 -31 68 l-31 48 -20 -25 c-11 -14 -30 -25 -43 -25 -17 0 -25 -6
-27 -22 -2 -17 -11 -24 -31 -26 l-28 -3 3 78 3 78 53 3 c29 2 50 7 48 11 -3 4
11 56 30 115 19 59 32 111 29 116 -3 5 -46 32 -95 60 -49 29 -93 57 -98 64 -5
6 -15 52 -21 101 -18 129 -24 135 -119 135 -136 0 -140 2 -206 91 -32 44 -66
84 -76 89 -13 7 -40 -2 -109 -35 -51 -25 -98 -45 -105 -45 -8 0 -57 20 -110
45 -54 25 -98 45 -100 45 -1 0 -9 -6 -18 -12z m102 -302 c8 -22 15 -24 112
-30 57 -4 134 -9 171 -12 l68 -6 -3 -97 -3 -96 -75 -8 c-193 -20 -203 -24 -62
-26 l133 -1 -7 -37 c-9 -51 -20 -63 -60 -63 -30 0 -35 4 -40 30 -6 28 -10 30
-48 30 -37 0 -43 -3 -53 -30 -10 -26 -16 -30 -47 -30 -41 0 -51 13 -60 85 -4
28 -19 100 -33 162 -27 111 -27 112 -57 115 -20 2 -32 9 -34 21 -3 14 4 17 43
17 39 0 47 -3 55 -24z m-411 -513 l20 -38 1 38 c0 33 3 37 25 37 25 0 25 -1
25 -80 l0 -80 -30 0 c-24 0 -33 7 -49 38 l-20 37 -1 -37 c0 -34 -3 -38 -25
-38 -24 0 -25 2 -25 73 0 41 3 77 7 80 3 4 17 7 29 7 17 0 29 -11 43 -37z
m159 -25 c3 -53 5 -57 30 -60 16 -2 28 -10 30 -21 3 -16 -3 -18 -55 -15 l-58
3 -3 78 -3 78 28 -3 c27 -3 28 -6 31 -60z m132 -18 c0 -78 -1 -80 -24 -80 -30
0 -36 16 -36 89 0 64 3 71 37 71 22 0 23 -3 23 -80z m101 48 l14 -33 5 30 c4
24 10 30 30 30 24 0 25 -2 28 -77 l3 -78 -31 0 c-23 0 -35 7 -50 33 l-20 32 0
-32 c0 -28 -4 -33 -24 -33 -30 0 -36 16 -36 89 0 66 3 71 40 71 22 0 31 -7 41
-32z m227 15 c-2 -12 -14 -19 -36 -21 -41 -4 -42 -22 -1 -22 24 0 30 -4 27
-17 -2 -11 -14 -19 -31 -21 -37 -5 -34 -20 5 -24 22 -2 34 -9 36 -20 3 -16 -5
-18 -56 -18 -68 0 -72 4 -72 80 0 76 4 80 72 80 51 0 59 -2 56 -17z m187 -8
c0 -17 -6 -20 -35 -18 l-35 2 31 -14 c42 -19 57 -40 50 -70 -7 -28 -35 -38
-87 -33 -27 2 -35 8 -37 26 -3 22 -1 23 32 16 46 -8 47 8 1 25 -28 10 -35 17
-35 40 0 39 18 52 70 49 37 -2 45 -6 45 -23z m85 -5 c0 -23 4 -30 20 -30 16 0
20 7 20 31 0 27 3 30 28 27 27 -3 27 -4 30 -81 l3 -78 -28 3 c-22 2 -29 9 -31
31 -2 19 -9 27 -23 27 -14 0 -19 -7 -19 -30 0 -25 -4 -30 -25 -30 -25 0 -25 1
-25 80 0 79 0 80 25 80 21 0 25 -5 25 -30z m267 8 c54 -50 15 -138 -61 -138
-77 0 -116 82 -64 137 29 31 92 32 125 1z m-267 -378 c0 -6 -127 -10 -360 -10
-233 0 -360 4 -360 10 0 6 127 10 360 10 233 0 360 -4 360 -10z m-1010 -95 c0
-20 5 -25 25 -25 20 0 25 5 25 25 0 14 5 25 10 25 6 0 10 -22 10 -50 0 -27 -4
-50 -10 -50 -5 0 -10 9 -10 20 0 15 -7 20 -25 20 -18 0 -25 -5 -25 -20 0 -11
-4 -20 -10 -20 -5 0 -10 23 -10 50 0 28 5 50 10 50 6 0 10 -11 10 -25z m310
-25 c0 -27 -4 -50 -10 -50 -5 0 -10 23 -10 50 0 28 5 50 10 50 6 0 10 -22 10
-50z m173 43 c-26 -10 -12 -23 25 -23 30 -1 34 -3 20 -11 -10 -5 -18 -21 -18
-34 0 -14 -4 -25 -10 -25 -5 0 -10 14 -10 30 0 17 -4 30 -10 30 -5 0 -10 -13
-10 -30 0 -43 -27 -39 -32 5 -5 44 7 65 35 64 12 0 16 -3 10 -6z m347 -8 c0
-8 9 -15 20 -15 16 0 20 -7 20 -35 0 -19 -4 -35 -10 -35 -5 0 -10 14 -10 30 0
17 -4 30 -10 30 -5 0 -10 -13 -10 -30 0 -20 -5 -30 -15 -30 -11 0 -15 12 -15
50 0 38 4 50 15 50 8 0 15 -7 15 -15z m325 5 c-3 -5 -10 -10 -16 -10 -5 0 -9
5 -9 10 0 6 7 10 16 10 8 0 12 -4 9 -10z m-1007 -58 c3 -32 2 -33 -30 -30 -37
3 -41 18 -9 33 27 12 28 28 1 20 -12 -4 -20 -2 -20 5 0 6 12 10 28 8 23 -2 28
-8 30 -36z m132 26 c0 -6 -7 -8 -15 -4 -20 7 -19 -4 2 -19 9 -7 13 -17 9 -23
-8 -14 -116 -14 -116 0 0 5 7 8 15 4 20 -7 19 4 -2 19 -9 7 -13 17 -10 22 9
14 117 14 117 1z m110 8 c0 -2 3 -11 6 -20 5 -12 0 -16 -20 -16 -14 0 -26 -5
-26 -11 0 -6 9 -9 20 -6 11 3 23 1 26 -4 3 -5 -8 -9 -25 -9 -35 0 -54 25 -40
52 8 15 59 27 59 14z m222 -7 c3 -8 10 -8 26 2 16 10 27 11 39 3 28 -17 27
-34 -1 -34 -14 0 -26 -5 -26 -11 0 -6 9 -9 20 -6 11 3 23 1 26 -4 9 -15 -53
-10 -66 6 -14 17 -60 20 -60 4 0 -6 9 -9 20 -6 11 3 23 1 26 -4 3 -5 -8 -9
-25 -9 -35 0 -54 25 -40 52 11 20 55 25 61 7z m178 1 c0 -5 -7 -7 -15 -4 -8 4
-15 1 -15 -5 0 -6 7 -11 15 -11 8 0 15 -9 15 -20 0 -16 -7 -20 -31 -20 -17 0
-28 4 -24 10 3 5 12 7 20 3 8 -3 15 0 15 5 0 6 -9 14 -20 17 -34 11 -23 35 17
35 13 0 23 -4 23 -10z m158 -2 c9 -9 12 -9 12 0 0 7 14 12 34 12 26 0 36 -5
41 -20 7 -23 -10 -50 -31 -50 -8 0 -14 -4 -14 -10 0 -5 -7 -10 -15 -10 -9 0
-15 9 -15 21 0 18 -3 19 -14 9 -34 -28 -78 4 -62 46 7 17 47 19 64 2z m167
-23 c0 -23 -5 -31 -22 -33 -13 -2 -23 -8 -23 -13 0 -5 -4 -9 -10 -9 -5 0 -10
21 -10 46 0 45 0 45 33 42 28 -3 32 -6 32 -33z m35 0 c0 -19 -4 -35 -10 -35
-5 0 -10 16 -10 35 0 19 5 35 10 35 6 0 10 -16 10 -35z m91 0 c7 -29 13 -17
10 18 -2 13 5 17 34 17 33 0 35 -2 25 -20 -6 -11 -18 -20 -28 -21 -10 -1 -7
-4 8 -8 14 -4 25 -13 25 -21 0 -20 -39 -24 -75 -8 -23 10 -30 19 -30 41 0 16
-4 26 -10 22 -5 -3 -10 -17 -10 -31 0 -13 -4 -24 -10 -24 -5 0 -10 16 -10 36
0 34 1 35 32 32 27 -2 34 -8 39 -33z"/>
<path d="M1401 1984 c0 -11 3 -14 6 -6 3 7 2 16 -1 19 -3 4 -6 -2 -5 -13z"/>
<path d="M1457 1994 c-4 -4 -7 -18 -7 -31 0 -17 6 -23 21 -23 16 0 20 5 17 27
-3 26 -18 39 -31 27z"/>
<path d="M1530 1965 c0 -16 6 -25 15 -25 9 0 15 9 15 25 0 16 -6 25 -15 25 -9
0 -15 -9 -15 -25z"/>
<path d="M1600 1966 c0 -20 5 -26 21 -26 15 0 20 5 17 22 -5 34 -38 37 -38 4z"/>
<path d="M1682 1960 c0 -14 2 -19 5 -12 2 6 2 18 0 25 -3 6 -5 1 -5 -13z"/>
<path d="M1450 1870 c0 -23 4 -30 20 -30 16 0 20 7 20 30 0 23 -4 30 -20 30
-16 0 -20 -7 -20 -30z"/>
<path d="M1530 1875 c0 -16 6 -25 15 -25 9 0 15 9 15 25 0 16 -6 25 -15 25 -9
0 -15 -9 -15 -25z"/>
<path d="M1602 1878 c2 -13 10 -23 18 -23 8 0 16 10 18 23 3 17 -2 22 -18 22
-16 0 -21 -5 -18 -22z"/>
<path d="M1682 1880 c0 -14 2 -19 5 -12 2 6 2 18 0 25 -3 6 -5 1 -5 -13z"/>
<path d="M1452 1741 c4 -13 18 -16 19 -4 0 4 -5 9 -11 12 -7 2 -11 -2 -8 -8z"/>
<path d="M1650 1734 c0 -8 5 -12 10 -9 6 3 10 10 10 16 0 5 -4 9 -10 9 -5 0
-10 -7 -10 -16z"/>
<path d="M2044 1536 c-11 -28 0 -61 21 -61 16 0 20 7 20 35 0 25 -5 36 -18 38
-9 2 -20 -3 -23 -12z"/>
<path d="M960 1039 c0 -5 5 -7 10 -4 6 3 10 8 10 11 0 2 -4 4 -10 4 -5 0 -10
-5 -10 -11z"/>
<path d="M1030 1076 c0 -9 71 -48 77 -42 4 3 4 7 2 9 -51 30 -79 42 -79 33z"/>
<path d="M1205 1070 c-3 -5 1 -10 10 -10 9 0 13 5 10 10 -3 6 -8 10 -10 10 -2
0 -7 -4 -10 -10z"/>
<path d="M1425 1070 c-3 -5 1 -10 10 -10 9 0 13 5 10 10 -3 6 -8 10 -10 10 -2
0 -7 -4 -10 -10z"/>
<path d="M1500 1070 c0 -5 5 -10 10 -10 6 0 10 5 10 10 0 6 -4 10 -10 10 -5 0
-10 -4 -10 -10z"/>
<path d="M1754 1065 c-3 -8 -3 -19 1 -25 11 -18 25 -11 25 15 0 27 -17 34 -26
10z"/>
<path d="M1847 1073 c-11 -10 -8 -43 3 -43 6 0 10 11 10 25 0 26 -2 29 -13 18z"/>
<path d="M1927 1074 c-11 -11 -8 -44 3 -44 15 0 24 30 13 41 -5 5 -12 6 -16 3z"/>
<path d="M2120 1070 c0 -5 5 -10 10 -10 6 0 10 5 10 10 0 6 -4 10 -10 10 -5 0
-10 -4 -10 -10z"/>
<path d="M2120 1020 c0 -5 5 -10 10 -10 6 0 10 5 10 10 0 6 -4 10 -10 10 -5 0
-10 -4 -10 -10z"/>
<path d="M764 1536 c-11 -28 0 -61 21 -61 16 0 20 7 20 35 0 25 -5 36 -18 38
-9 2 -20 -3 -23 -12z"/>
<path d="M2230 1535 c0 -8 5 -15 10 -15 6 0 10 7 10 15 0 8 -4 15 -10 15 -5 0
-10 -7 -10 -15z"/>
</g>
</svg>
